<svg xmlns="http://www.w3.org/2000/svg" viewBox="446 300 1164 1380">
 <g fill="currentColor">
  <path d="M730.40 1261.60 l0.60 -376.60 4.80 -24 c7 -35.20 7 -34.80 -8.60 -66.40 -12.40 -24.60 -15.40 -29 -29.80 -43.20 l-16 -15.80 3.60 -6.40 c8 -13.80 29.60 -47.20 30.80 -47.20 0.60 0 8 5.40 16.40 12 13.40 10.40 32 30.80 42 45.80 l3 4.80 12.80 -17.80 c20.60 -28.60 63.40 -70 83.40 -80.60 4.60 -2.40 4.20 -3 36.80 59.80 l6.80 13 -19 19 c-10.60 10.40 -24 25.40 -29.60 33 -13.60 18.20 -32.80 57.20 -39.40 80 -11.20 39 -11 27.40 -11 422.60 l0 364.40 -44 0 -44 0 0.40 -376.40z"/>
  <path d="M975.60 1636.60 c-0.20 -1 -0.60 -149.60 -0.60 -330.60 l0 -329 -8.40 -18.20 c-22.20 -48.80 -37 -72.60 -57.80 -93.60 l-13.40 -13.60 4.40 -9.20 c6.60 -13.40 26.20 -46.40 27.60 -46.40 2 0 14.60 10 25.40 20 10.40 9.60 28.60 32.60 38.60 48.80 6.80 10.80 7.40 10.60 12.60 -5.80 8.80 -27.80 30.80 -70.40 51.60 -99.80 11 -15.60 61.80 -69.20 65.60 -69.20 1.80 0 26.40 43 37.80 65.80 l5.40 10.80 -8 8.20 c-52 54.20 -86.20 133.20 -92.40 213.60 -1 14.20 -2 157.60 -2 337.20 l0 312.40 -43 0 c-23.60 0 -43.20 -0.60 -43.40 -1.40z"/>
  <path d="M1229.60 1327.60 l-0.60 -310.60 -5.60 -16 c-7.20 -20.60 -23.20 -54 -31.60 -66.20 -3.60 -5.20 -12.80 -16 -20.40 -24.20 l-13.80 -14.60 15.40 -26.40 c8.60 -14.60 15.80 -27 16.20 -27.40 0.40 -0.40 6.60 4.20 14 10 15.60 12.40 32.40 32.60 45 54.40 4.80 8.40 9.40 15.40 10 15.40 0.60 0 5.20 -9.60 10.40 -21.60 10.80 -24.60 28.20 -52.40 46.60 -74.60 12.60 -15.20 40.80 -41.80 44.20 -41.80 1 0 10.20 14.60 20.20 32.40 l18.20 32.40 -10.60 11.20 c-30.60 32.20 -51.20 73.60 -63.60 127.60 l-4.40 19.40 -1.20 315 -1 315 -43.40 0.60 -43.60 0.40 -0.40 -310.40z"/>
  <path d="M1098 1410.40 l0 -43.80 21.60 -2.40 c19.20 -2.20 64 -10.60 71.40 -13.60 2.60 -0.80 3 5.20 3 44 l0 45 -10.40 2.40 c-18.80 4 -54.20 9.60 -70 11 l-15.60 1.40 0 -44z"/>
  <path d="M907 1442.80 c-21.40 -3.20 -49.20 -8.80 -51.40 -10 -0.80 -0.60 -1.60 -21.40 -1.60 -46.20 l0 -45 4.60 1.20 c10.60 3.20 49.40 11 60.40 12.20 21 2.40 19 -2.60 19 47.20 l0 43.80 -6.40 -0.20 c-3.60 -0.20 -14.60 -1.40 -24.60 -3z"/>
  <path d="M1354.40 1346.40 l0.60 -56 13 -12.60 c27.80 -27.20 57.20 -66.40 72.40 -96.80 13.20 -25.80 24.80 -59.80 30.60 -89.60 1.80 -9 3.80 -18 4.20 -19.80 1 -3.40 -2.60 -3.60 -56 -3.60 l-57.20 0 0 -44 0 -44 104.40 0 104.20 0 -1.20 38.60 c-3.20 105.60 -33.20 190.40 -98 276.40 -23 30.60 -97.40 99.80 -114.40 106.20 -3 1.20 -3.20 -3.40 -2.60 -54.80z"/>
  <path d="M666 1358.20 c-98 -84.40 -158.20 -190.80 -179.80 -318.20 -35.80 -210.80 43.60 -420.60 207.80 -548.20 71 -55.20 153.20 -91 244 -106 31.80 -5.40 107 -7.40 141.40 -3.80 103.40 10.40 201.60 50.60 283.80 116.20 42.80 34.20 91.80 89.60 121.20 137 22.60 36.60 47.80 91.60 57.40 125.40 l4 13.40 -46.40 0 -46.40 0 -6 -16.60 c-12.20 -34.60 -42.20 -87.20 -68.60 -120.40 -16.20 -20.40 -48.80 -53.40 -68.40 -69 -48.80 -39 -110 -70.20 -166.20 -84.80 -43.20 -11.20 -67.20 -14 -118.80 -14 -40.60 0 -52 0.60 -73.80 4.40 -46.60 8 -80.60 18.60 -119.80 37.20 -143.80 67.80 -243.40 209.60 -261.40 372.20 -3 27.40 -2.40 92.60 1 121 11.20 91.20 47.60 174.40 104.20 238.80 l17.40 19.80 -0.40 58.20 c-0.20 32 -0.60 58.40 -0.80 58.60 -0.20 0.20 -11.80 -9.40 -25.40 -21.20z"/>
 </g>
</svg>
